<svg width="450" height="450" viewBox="0 0 450 450" fill="none" xmlns="http://www.w3.org/2000/svg">
<path d="M223.448 253.458C214.317 253.458 205.437 254.219 196.847 255.675L210.076 232.761C214.542 232.467 219.014 232.318 223.448 232.318C233.836 232.318 244.406 233.175 254.625 234.815L203.256 145.841L117.742 293.955L105.521 272.787L203.063 103.84L203.264 104.188L203.457 103.855L321.17 307.741H296.729L269.217 260.089C254.882 255.766 239.558 253.458 223.448 253.458Z" fill="#9AA5AD"/>
<path d="M328.778 294.311L214.812 96.9168H239.253L340.998 273.144L328.778 294.311Z" fill="#9AA5AD"/>
<path d="M215.664 194.303L168.868 275.356C185.612 270.305 205.323 268.049 223.918 268.049C225.421 268.049 226.928 268.067 228.437 268.103C239.002 268.352 249.673 269.47 259.899 271.379L275.512 298.421C259.53 292.608 242.231 289.188 223.918 289.188C196.833 289.188 171.96 295.887 150.297 307.541L150.638 306.931L150.171 307.741H125.729L203.443 173.136L215.664 194.303Z" fill="#9AA5AD"/>
<path fill-rule="evenodd" clip-rule="evenodd" d="M225 413.265C328.976 413.265 413.265 328.976 413.265 225C413.265 121.024 328.976 36.7347 225 36.7347C121.024 36.7347 36.7347 121.024 36.7347 225C36.7347 328.976 121.024 413.265 225 413.265ZM225.459 390.306C317.009 390.306 391.224 316.09 391.224 224.541C391.224 132.991 317.009 58.7755 225.459 58.7755C133.91 58.7755 59.6939 132.991 59.6939 224.541C59.6939 316.09 133.91 390.306 225.459 390.306Z" fill="#9AA5AD"/>
<path fill-rule="evenodd" clip-rule="evenodd" d="M225 450C349.264 450 450 349.264 450 225C450 100.736 349.264 0 225 0C100.736 0 0 100.736 0 225C0 349.264 100.736 450 225 450ZM225.918 428.878C338.517 428.878 429.796 337.598 429.796 225C429.796 112.402 338.517 21.1225 225.918 21.1225C113.32 21.1225 22.0408 112.402 22.0408 225C22.0408 337.598 113.32 428.878 225.918 428.878Z" fill="#9AA5AD"/>
</svg>
