<svg width="72" height="46" viewBox="0 0 72 46" fill="none" xmlns="http://www.w3.org/2000/svg">
<path fill-rule="evenodd" clip-rule="evenodd" d="M41.8008 0L41.6015 1.43381C41.4892 2.24212 41.3782 3.0418 41.2666 3.8402C41.2556 3.87565 41.2477 3.91197 41.2428 3.94877C41.3437 5.14957 40.6065 5.79884 39.7379 6.46655C36.7305 8.782 33.744 11.1245 30.7585 13.4664L30.7582 13.4666C29.7344 14.2697 28.7108 15.0726 27.6865 15.8743C27.5998 15.9423 27.5117 16.0072 27.3926 16.0947L27.3925 16.0948C27.3385 16.1346 27.2782 16.179 27.2087 16.2304C28.0247 11.2272 28.8308 6.3111 29.6384 1.38504L29.8655 0H41.8008ZM49.0942 0.00758816L51.3166 1.80989L19.1142 26.4992L63.4908 45.8489L63.5316 45.8008C63.5615 45.7654 63.5916 45.7298 63.6222 45.6947L41.8709 24.002L71.9453 0.00758816H49.0942ZM7.16575 0.00998442C4.77717 15.3237 2.38858 30.6353 0 45.9447C0.0808532 45.9664 0.163242 45.9821 0.246458 45.9914C3.95455 45.987 7.66373 45.9899 11.374 46C11.735 46.0011 11.7648 45.8106 11.8081 45.5333L11.8083 45.5321C12.3859 41.8008 12.9711 38.071 13.5639 34.3427C13.9236 32.0756 14.2864 29.8092 14.6492 27.5428L14.6492 27.5428L14.6495 27.5414C15.0662 24.9382 15.4829 22.3351 15.8949 19.731C16.7946 14.0209 17.6922 8.30996 18.5875 2.59834C18.6961 1.90605 18.8012 1.21376 18.909 0.502774L18.9091 0.502297L18.9838 0.00998442H7.16575ZM24.6885 33.1407C23.8709 37.4651 23.0729 41.6842 22.2565 45.9967C22.8661 45.9967 23.4732 45.9968 24.078 45.9969C27.2891 45.9973 30.4376 45.9977 33.586 45.9859C33.7065 45.9848 33.8932 45.7752 33.9236 45.6352C34.0125 45.227 34.0757 44.8125 34.1389 44.3984C34.1629 44.2409 34.187 44.0833 34.2124 43.9262C34.3224 43.2503 34.4324 42.5748 34.5426 41.8981C34.7728 40.4845 35.0038 39.066 35.2373 37.6291L24.6885 33.1407Z" fill="#0151B4"/>
</svg>
